<svg width="402" height="264" viewBox="0 0 402 264" fill="none" xmlns="http://www.w3.org/2000/svg">
<path opacity="0.2" d="M233.615 204.081C200.273 230.677 156.68 243.198 106.648 242.469C85.5388 242.162 64.0233 239.979 43.6075 245.046C23.1918 250.112 3.55328 264.633 0.511478 284.903C-3.21997 309.791 19.0169 331.904 42.6969 342.366C92.5081 364.365 153.21 371.908 200.414 339.734C237.165 314.68 312.416 291.714 351.519 270.5C389.379 249.965 385.145 232.716 420 207.433C438.363 194.106 450.986 174.228 460.155 153.495C473.14 124.131 480.026 91.1213 473.449 59.6793C466.87 28.2482 445.113 -1.0508 414.553 -11.1117C334.428 -37.4774 307.405 65.7667 289.907 119.542C278.074 155.96 258.758 184.023 233.615 204.081Z" fill="#FF0000"/>
</svg>
