<svg width="27" height="21" viewBox="0 0 27 21" fill="none" xmlns="http://www.w3.org/2000/svg">
<g id="&#240;&#159;&#166;&#134; icon &#34;credit card&#34;">
<path id="Vector" d="M7.25 14.3572C7.94035 14.3572 8.5 13.7816 8.5 13.0715C8.5 12.3614 7.94035 11.7857 7.25 11.7857C6.55965 11.7857 6 12.3614 6 13.0715C6 13.7816 6.55965 14.3572 7.25 14.3572Z" fill="#1E1E1E" stroke="#1E1E1E" stroke-width="2" stroke-linecap="round" stroke-linejoin="round"/>
<path id="Vector_2" d="M1 6.64286V2.27143C1 1.84538 1.33579 1.5 1.75 1.5H25.25C25.6642 1.5 26 1.84538 26 2.27143V6.64286M1 6.64286V18.7286C1 19.1547 1.33579 19.5 1.75 19.5H25.25C25.6642 19.5 26 19.1547 26 18.7286V6.64286M1 6.64286H26" stroke="#1E1E1E" stroke-width="2" stroke-linecap="round" stroke-linejoin="round"/>
</g>
</svg>
