<svg width="27" height="21" viewBox="0 0 27 21" fill="none" xmlns="http://www.w3.org/2000/svg">
<g id="&#240;&#159;&#166;&#134; icon &#34;delivery truck&#34;">
<path id="Vector" d="M8.95437 19.5C10.2096 19.5 11.2271 18.2603 11.2271 16.7308C11.2271 15.2014 10.2096 13.9616 8.95437 13.9616C7.69917 13.9616 6.68164 15.2014 6.68164 16.7308C6.68164 18.2603 7.69917 19.5 8.95437 19.5Z" stroke="#1E1E1E" stroke-width="2" stroke-miterlimit="1.5" stroke-linecap="round" stroke-linejoin="round"/>
<path id="Vector_2" d="M20.3184 19.5C21.5736 19.5 22.5911 18.2603 22.5911 16.7308C22.5911 15.2014 21.5736 13.9616 20.3184 13.9616C19.0632 13.9616 18.0457 15.2014 18.0457 16.7308C18.0457 18.2603 19.0632 19.5 20.3184 19.5Z" stroke="#1E1E1E" stroke-width="2" stroke-miterlimit="1.5" stroke-linecap="round" stroke-linejoin="round"/>
<path id="Vector_3" d="M11.2841 16.7308H16.9091V2.33077C16.9091 1.87195 16.6039 1.5 16.2273 1.5H1" stroke="#1E1E1E" stroke-width="2" stroke-linecap="round"/>
<path id="Vector_4" d="M6.28407 16.7308H3.95452C3.57797 16.7308 3.27271 16.3589 3.27271 15.9V9.11542" stroke="#1E1E1E" stroke-width="2" stroke-linecap="round"/>
<path id="Vector_5" d="M2.13647 5.65387H6.68193" stroke="#1E1E1E" stroke-width="2" stroke-linecap="round" stroke-linejoin="round"/>
<path id="Vector_6" d="M16.9092 5.65387H23.2843C23.5537 5.65387 23.7979 5.84722 23.9074 6.14724L25.9413 11.7235C25.9801 11.8298 26.0001 11.9447 26.0001 12.0609V15.9C26.0001 16.3589 25.6949 16.7308 25.3183 16.7308H23.1592" stroke="#1E1E1E" stroke-width="2" stroke-linecap="round"/>
<path id="Vector_7" d="M16.9092 16.7308H18.0455" stroke="#1E1E1E" stroke-width="2" stroke-linecap="round"/>
</g>
</svg>
